<?xml version="1.0" encoding="UTF-8" standalone="no"?>
<!-- Generator: Adobe Illustrator 18.0.0, SVG Export Plug-In . SVG Version: 6.00 Build 0)  -->

<svg
   xmlns:dc="http://purl.org/dc/elements/1.1/"
   xmlns:cc="http://creativecommons.org/ns#"
   xmlns:rdf="http://www.w3.org/1999/02/22-rdf-syntax-ns#"
   xmlns:svg="http://www.w3.org/2000/svg"
   xmlns="http://www.w3.org/2000/svg"
   xmlns:sodipodi="http://sodipodi.sourceforge.net/DTD/sodipodi-0.dtd"
   xmlns:inkscape="http://www.inkscape.org/namespaces/inkscape"
   version="1.1"
   id="Layer_1"
   x="0px"
   y="0px"
   viewBox="225.6 0 799.5 799.5"
   enable-background="new 225.6 0 799.5 799.5"
   xml:space="preserve"
   sodipodi:docname="ttnulm.svg"
   inkscape:version="0.92.3 (2405546, 2018-03-11)"><metadata
   id="metadata976"><rdf:RDF><cc:Work
       rdf:about=""><dc:format>image/svg+xml</dc:format><dc:type
         rdf:resource="http://purl.org/dc/dcmitype/StillImage" /></cc:Work></rdf:RDF></metadata><defs
   id="defs974" /><sodipodi:namedview
   pagecolor="#ffffff"
   bordercolor="#666666"
   borderopacity="1"
   objecttolerance="10"
   gridtolerance="10"
   guidetolerance="10"
   inkscape:pageopacity="0"
   inkscape:pageshadow="2"
   inkscape:window-width="2394"
   inkscape:window-height="1735"
   id="namedview972"
   showgrid="false"
   showguides="true"
   inkscape:guide-bbox="true"
   inkscape:zoom="1.9324578"
   inkscape:cx="207.66079"
   inkscape:cy="277.79086"
   inkscape:window-x="0"
   inkscape:window-y="62"
   inkscape:window-maximized="0"
   inkscape:current-layer="Layer_1"><sodipodi:guide
     position="390.69417,341.53398"
     orientation="1,0"
     id="guide982"
     inkscape:locked="false" /></sodipodi:namedview>
<circle
   fill="#FFFFFF"
   cx="625.6"
   cy="400"
   r="400"
   id="circle927" />
<g
   id="g969">
	<path
   fill="#0D83D0"
   d="M840.5,384.2c1.2,14.7-3.4,28.6-12.8,39.2c-10.1,11.3-25.2,17.5-42.1,17.5H418.9l0,0c-0.2,0-0.3,0-0.5,0   h-0.2h-0.3l0,0c-14.9-0.2-28.9-6-39.4-16.4c-11.1-11-17.1-25.7-17.3-41.2l0,0c0-28.9,19.7-52.4,46.5-56.8   c3.6-24.1,24.6-43.8,50.7-47.9c1.5-9.6,6.2-18.8,13.5-26.4c10.6-11,25-17.1,39.7-17.1c19,0,35.6,10.3,44.5,25.7   c10.4-37.3,44.7-64.7,85.2-64.7c44.3,0,81.3,32.9,87.4,75.6c22.2-16.6,51.9-15.1,74.1,5.8l-2.4-2.1c17.8,14.4,24,33.9,23.1,50.3   c-0.5,9.8-3.8,18.3-9.6,25.3c5.6,1.9,10.3,5.1,14.7,9.6c6.2,6.2,10.4,13.9,11.6,22.4l0,0C840.4,383.3,840.4,383.7,840.5,384.2   C840.5,383.7,840.5,383.8,840.5,384.2z M868.1,246.1c-13-17.6-32.3-30.6-53.6-36.1c-4.8-1-9.8,2.2-10.8,6.8c-1.9,4.8,1.2,11,6.3,12   c21.4,5.6,39.9,20.7,49.6,40.6c8,16.3,10.1,35.4,5.6,53c-1.2,5,2.4,10.3,7.5,11c4.6,1.4,9.8-1.4,11.3-5.8   C891.2,300,885.2,269,868.1,246.1z M807,243.3c-7.4-1.4-13,7.7-9.8,14c1.2,2.7,3.9,4.6,6.8,5.3c11.1,2.9,20.9,10.6,26,20.9   c4.6,9.1,5.6,19.7,3.1,29.4c-1.4,5,2.2,10.4,7.4,11.3c4.6,1.4,10.1-1.4,11.5-6.2c4.8-17.5,1.2-37-9.4-51.5   C834,255,821.2,246.1,807,243.3z"
   id="path929" />
	<g
   id="g967">
		<g
   id="g945">
			<path
   fill="#363636"
   d="M376.6,602.9h-9.2v-40.6h9.2l16.3,25.3l0,0v-25.3h9.2v40.6h-9.2l-16.3-25.3l0,0V602.9z"
   id="path931" />
			<path
   fill="#363636"
   d="M473.3,570.2h-14v7.9h13.3v8.2h-13.3v8.2h14v8.2H450v-40.6h23.3V570.2z"
   id="path933" />
			<path
   fill="#363636"
   d="M517.8,562.1h28.6v8.2h-9.6v32.3h-9.2v-32.3H518L517.8,562.1L517.8,562.1z"
   id="path935" />
			<path
   fill="#363636"
   d="M616.5,580.1l-6.5,22.8h-10.3l-11.4-40.6h10.1l6.8,28.1h0.2l7.4-28.1h6.8l7.4,28.1h0.7l6.8-28.1h10.3     l-11.5,40.6H623L616.5,580.1z"
   id="path937" />
			<path
   fill="#363636"
   d="M706,561.5c11.3,0,20.5,9.2,20.5,20.9c0,12-8.7,21-20.5,21c-12.1,0-20.5-9.2-20.5-21     C685.5,570.5,694.7,561.5,706,561.5z M706,594.5c7.4,0,10.4-6,10.4-12.1c0-5.8-3.4-12.1-10.4-12.1c-7.2,0-10.4,6-10.4,12.1     S698.5,594.5,706,594.5z"
   id="path939" />
			<path
   fill="#363636"
   d="M787,562.1c7.5,0,13.3,4.1,13.3,12.1c0,6-3.4,10.3-8.4,11.6l14,16.9h-11.6L782,586.6v16.1h-9.2v-40.6H787     L787,562.1z M782.7,580.3c3.6,0,7.5-0.2,7.5-5.5s-4.1-5.5-7.5-5.5h-1v10.6h1V580.3z"
   id="path941" />
			<path
   fill="#363636"
   d="M873.7,602.9l-15.1-17.3v17.3h-9.2v-40.6h9.2v16.8l14-16.8h11.3l-16.6,19.2l18.8,21.4L873.7,602.9     L873.7,602.9z"
   id="path943" />
		</g>
		<g
   id="g965">
			<path
   fill="#363636"
   d="M361.4,471.3h47.4v13.5h-16.1v53.9h-15.4v-53.9h-16.1L361.4,471.3L361.4,471.3z"
   id="path947" />
			<path
   fill="#363636"
   d="M433.1,538.9h-15.4v-67.6h15.4v27h21.7v-27h15.4v67.6h-15.4v-27.2h-21.7V538.9z"
   id="path949" />
			<path
   fill="#363636"
   d="M521.9,485h-23.1v13.3H521v13.5h-22.2v13.5h23.3v13.5h-38.8v-67.6H522L521.9,485L521.9,485z"
   id="path951" />
			<path
   fill="#363636"
   d="M551.5,471.3h47.4v13.5h-16.1v53.9h-15.4v-53.9h-16.1L551.5,471.3L551.5,471.3z"
   id="path953" />
			<path
   fill="#363636"
   d="M623.2,538.9h-15.4v-67.6h15.4v27h21.7v-27h15.4v67.6h-15.4v-27.2h-21.7V538.9L623.2,538.9z"
   id="path955" />
			<path
   fill="#363636"
   d="M688.9,538.9h-15.4v-67.6h15.4V538.9z"
   id="path957" />
			<path
   fill="#363636"
   d="M717.3,538.9h-15.4v-67.6h15.4l26.7,41.8h0.2v-41.8h15.4v67.6h-15.4l-26.7-41.8h-0.2V538.9L717.3,538.9z"
   id="path959" />
			<path
   fill="#363636"
   d="M833.7,515.6c-3.8,17.1-18,24.5-31.1,24.5c-18.1,0-32.9-15.7-32.9-34.9c0-19.5,14-34.9,32.9-34.9     c12,0,20,4.4,26,11.5l-10.1,11.1c-3.9-6.3-9.1-8.6-15.1-8.6c-9.4,0-17.1,9.4-17.1,21c0,11.5,7.7,20.7,17.1,20.7     c7.4,0,14.7-4.8,14.7-13h-15.4v-12h31.1v14.5L833.7,515.6L833.7,515.6z"
   id="path961" />
			<path
   fill="#363636"
   d="M888.1,476.6l-6.3,12.3c0,0-6.7-4.6-13.5-4.6c-5.3,0-7.9,2.2-7.9,6s6.5,6.5,14,9.8     c7.5,3.1,15.9,9.6,15.9,18.5c0,16.1-12.3,21.7-25.5,21.7c-15.9,0-25.3-9.1-25.3-9.1l7.7-13c0,0,9.1,7.5,16.6,7.5     c3.4,0,9.8-0.3,9.8-6.7c0-4.8-7.2-7.2-15.2-11.1c-8.2-3.9-12.8-10.3-12.8-17.3c0-12.5,11.1-20.7,21.9-20.7     C879.4,470.1,888.1,476.6,888.1,476.6z"
   id="path963" />
		</g>
	</g>
</g>
<g
   aria-label="ULM"
   style="font-style:normal;font-variant:normal;font-weight:normal;font-stretch:normal;font-size:22.5px;line-height:125%;font-family:'League Spartan';-inkscape-font-specification:'League Spartan';letter-spacing:52.5px;word-spacing:0px;fill:#363636;fill-opacity:1;stroke:none;stroke-width:1px;stroke-linecap:butt;stroke-linejoin:miter;stroke-opacity:1"
   id="text980"><path
     d="m 547.44416,625.74364 h -9.52533 v 24.168 c 0,6.992 -2.128,9.01867 -6.78934,9.01867 -4.66133,0 -6.78933,-2.02667 -6.78933,-9.01867 v -24.168 h -9.52533 v 26.95467 c 0,10.336 5.67466,15.60533 16.31466,15.60533 10.64,0 16.31467,-5.26933 16.31467,-15.60533 z"
     style="font-size:50.66666794px;letter-spacing:52.5px;fill:#363636;fill-opacity:1"
     id="path836" /><path
     d="m 615.04995,625.74364 h -9.52533 v 41.8 h 23.91467 v -8.36 h -14.38934 z"
     style="font-size:50.66666794px;letter-spacing:52.5px;fill:#363636;fill-opacity:1"
     id="path838" /><path
     d="m 721.17824,667.54364 h 9.52533 l -3.74933,-41.8 h -10.13333 l -9.272,24.11733 -9.272,-24.11733 h -10.13334 l -3.74933,41.8 h 9.52533 l 1.976,-24.776 h 0.25334 l 8.56266,24.52267 h 5.67467 l 8.56267,-24.52267 h 0.25333 z"
     style="font-size:50.66666794px;letter-spacing:52.5px;fill:#363636;fill-opacity:1"
     id="path840" /></g>
</svg>